<?xml version="1.0" encoding="UTF-8" standalone="no"?>
<!-- Created with Inkscape (http://www.inkscape.org/) -->

<svg
   width="100.192mm"
   height="62.339851mm"
   viewBox="0 0 100.192 62.339851"
   version="1.1"
   id="svg1"
   xml:space="preserve"
   sodipodi:docname="CodeLabs-logo-vertical.svg"
   inkscape:version="1.4.2 (f4327f4, 2025-05-13)"
   xmlns:inkscape="http://www.inkscape.org/namespaces/inkscape"
   xmlns:sodipodi="http://sodipodi.sourceforge.net/DTD/sodipodi-0.dtd"
   xmlns="http://www.w3.org/2000/svg"
   xmlns:svg="http://www.w3.org/2000/svg"><sodipodi:namedview
     id="namedview1"
     pagecolor="#ffffff"
     bordercolor="#000000"
     borderopacity="0.25"
     inkscape:showpageshadow="2"
     inkscape:pageopacity="0.0"
     inkscape:pagecheckerboard="0"
     inkscape:deskcolor="#d1d1d1"
     inkscape:document-units="mm"
     inkscape:zoom="1.2308205"
     inkscape:cx="142.18158"
     inkscape:cy="-3.2498646"
     inkscape:window-width="2560"
     inkscape:window-height="1369"
     inkscape:window-x="-8"
     inkscape:window-y="-8"
     inkscape:window-maximized="1"
     inkscape:current-layer="svg1" /><defs
     id="defs1" /><g
     id="layer1"
     transform="translate(-54.904002,-117.33008)"><g
       style="fill:none"
       id="g1"
       transform="matrix(0.26458333,0,0,0.26458333,81.227084,120.87463)"><g
         id="g2"
         transform="translate(-96.047702,50.960135)"><path
           style="font-size:90.1151px;font-family:Consolas;-inkscape-font-specification:Consolas;fill:#8455f0;stroke-width:0.46935"
           d="m 28.900001,17.397947 h -3.256112 q -8.492292,0 -12.628434,-4.004138 Q 8.8793124,9.4336729 8.8793124,1.3373946 V -13.799126 q 0,-2.156074 -0.4840166,-3.828131 -0.4840166,-1.716059 -1.716059,-2.860098 -1.1880408,-1.188041 -3.2121104,-1.804062 -1.980068,-0.616022 -5.0161724,-0.616022 h -1.892065 v -6.11621 h 1.892065 q 3.2121104,0 5.23618,-0.528018 2.0240696,-0.528018 3.1681089,-1.584054 1.1440393,-1.100038 1.5840544,-2.772096 0.4400151,-1.672057 0.4400151,-3.960136 v -10.428358 q 0,-3.696127 0.8800303,-6.644229 0.8800303,-2.992102 2.8600983,-5.060173 2.02407,-2.112073 5.192178,-3.212111 3.212111,-1.144039 7.83227,-1.144039 h 3.256112 v 6.160212 h -2.59609 q -10.208351,0 -10.208351,9.90034 v 10.252352 q 0,10.736369 -9.2843186,12.100416 9.3723216,0.924032 9.3723216,12.056414 V 1.1613886 q 0,10.0763464 10.120348,10.0763464 h 2.59609 z M 80.337769,-2.2707294 q -2.992102,1.1440393 -6.160211,1.67205748 -3.124108,0.57201966 -6.468223,0.57201966 -10.47236,0 -16.148555,-5.67619504 -5.632193,-5.6761947 -5.632193,-16.5885697 0,-5.23618 1.628056,-9.504327 1.628056,-4.268147 4.576157,-7.304251 2.948101,-3.036104 7.040242,-4.66416 4.092141,-1.672058 9.02031,-1.672058 3.432118,0 6.424221,0.484017 2.992103,0.484016 5.720196,1.584054 v 7.304251 q -2.860098,-1.496051 -5.852201,-2.156074 -2.948101,-0.704024 -6.11621,-0.704024 -2.948101,0 -5.588192,1.144039 -2.596089,1.100038 -4.576157,3.212111 -1.980068,2.112072 -3.124108,5.148177 -1.144039,3.036104 -1.144039,6.864235 0,8.008276 3.872133,12.012413 3.916135,3.9601364 10.824372,3.9601364 3.124108,0 6.028207,-0.7040242 2.948102,-0.7040242 5.676195,-2.1120726 z M 134.01962,-23.083445 q 0,5.148177 -1.45205,9.460325 -1.45205,4.2681471 -4.18015,7.348253 -2.72809,3.0361043 -6.64423,4.7521633 -3.91613,1.67205749 -8.8883,1.67205749 -4.75217,0 -8.5363,-1.45204989 -3.74012,-1.4960514 -6.380215,-4.3561497 -2.596089,-2.8600983 -4.004137,-7.0842432 -1.364047,-4.224145 -1.364047,-9.724334 0,-5.148177 1.45205,-9.372323 1.45205,-4.268146 4.180144,-7.304251 2.728095,-3.080105 6.644225,-4.752163 3.91614,-1.716059 8.88831,-1.716059 4.75216,0 8.49229,1.496051 3.78413,1.45205 6.38022,4.312149 2.64009,2.816096 4.00414,7.040242 1.40805,4.224145 1.40805,9.680332 z m -7.83227,0.352012 q 0,-4.09214 -0.92404,-7.128245 -0.88003,-3.080105 -2.55208,-5.104175 -1.67206,-2.068071 -4.09214,-3.080106 -2.37609,-1.056036 -5.32419,-1.056036 -3.43211,0 -5.8962,1.364047 -2.42008,1.320045 -4.00414,3.564122 -1.54005,2.244077 -2.28808,5.23618 -0.70402,2.948102 -0.70402,6.204213 0,4.092141 0.88003,7.172247 0.92403,3.080106 2.59609,5.148177 1.67206,2.0240694 4.04814,3.0801057 2.37608,1.0120348 5.36818,1.0120348 3.43212,0 5.8522,-1.3200454 2.46409,-1.3640469 4.00414,-3.6081241 1.58406,-2.244077 2.28808,-5.192178 0.74803,-2.992103 0.74803,-6.292217 z m 16.67657,0.924032 q 0,-5.632193 1.54006,-9.988343 1.54005,-4.400151 4.35615,-7.392254 2.8601,-3.036104 6.82023,-4.576157 4.00414,-1.584055 8.88831,-1.584055 2.11207,0 4.13614,0.264009 2.06807,0.264009 4.04814,0.836029 V -62.81681 h 7.70026 v 62.17413657 h -6.86423 l -0.26401,-8.36028737 q -3.21211,4.6641603 -6.95224,6.9082375 -3.74013,2.24407709 -8.09628,2.24407709 -3.78413,0 -6.68823,-1.58405449 -2.8601,-1.5840544 -4.79616,-4.4441527 -1.89207,-2.9040998 -2.8601,-6.9522386 -0.96804,-4.048139 -0.96804,-8.976309 z m 7.83227,-0.484016 q 0,8.008275 2.33208,11.968411 2.37609,3.9161345 6.68823,3.9161345 2.9041,0 6.11621,-2.5960893 3.25612,-2.5960892 6.82024,-7.7002642 V -37.20793 q -1.89207,-0.88003 -4.18015,-1.320045 -2.28807,-0.484017 -4.53215,-0.484017 -6.24822,0 -9.76834,4.048139 -3.47612,4.048139 -3.47612,12.672436 z m 81.27079,-2.772096 q 0,1.628056 -0.044,2.728094 -0.044,1.100038 -0.132,2.068071 h -31.02107 q 0,6.776233 3.78413,10.4283585 3.78413,3.608124 10.91238,3.608124 1.93606,0 3.87213,-0.1320045 1.93607,-0.1760061 3.74013,-0.4400151 1.80406,-0.2640091 3.43212,-0.5720197 1.67205,-0.3520121 3.0801,-0.7480257 v 6.2922162 q -3.12411,0.88003028 -7.08424,1.40804843 -3.91614,0.57201966 -8.14028,0.57201966 -5.6762,0 -9.76834,-1.54005289 -4.09214,-1.540053 -6.73223,-4.4441528 -2.59609,-2.9481013 -3.87213,-7.1722461 -1.23204,-4.268147 -1.23204,-9.636332 0,-4.66416 1.32004,-8.800302 1.36405,-4.180144 3.91614,-7.304251 2.59609,-3.168109 6.33621,-5.016172 3.74013,-1.848064 8.4923,-1.848064 4.62015,0 8.18428,1.45205 3.56412,1.45205 5.9842,4.136142 2.46409,2.640091 3.69613,6.468222 1.27604,3.78413 1.27604,8.492292 z m -7.96427,-1.100038 q 0.132,-2.948101 -0.57202,-5.368184 -0.70402,-2.464085 -2.20008,-4.224145 -1.45204,-1.760061 -3.65212,-2.728094 -2.20008,-1.012035 -5.10418,-1.012035 -2.50808,0 -4.57615,0.968034 -2.06807,0.968033 -3.56413,2.728093 -1.49605,1.760061 -2.42008,4.224145 -0.92403,2.464085 -1.14404,5.412186 z m 23.2328,-38.193312 h 3.25611 q 8.49229,0 12.62843,4.004137 4.13614,3.960137 4.13614,12.056415 v 10.164349 q 0,2.156074 0.48402,3.872133 0.48402,1.672058 1.67206,2.860099 1.23204,1.144039 3.25611,1.76006 2.02407,0.616021 5.06017,0.616021 h 1.89207 v 6.11621 h -1.89207 q -3.21211,0 -5.28018,0.528019 -2.02407,0.528018 -3.16811,1.628055 -1.14404,1.056037 -1.58405,2.728094 -0.44002,1.672058 -0.44002,3.960136 V 1.3373946 q 0,3.696127 -0.88003,6.6442284 -0.88003,2.992103 -2.86009,5.060174 -1.98007,2.112072 -5.19218,3.21211 -3.21211,1.14404 -7.83227,1.14404 h -3.25611 v -6.160212 h 2.64009 q 10.16435,0 10.16435,-9.9003404 V -13.887129 q 0,-10.736369 9.28432,-12.056414 -9.37233,-1.012035 -9.37233,-12.100416 v -10.076346 q 0,-10.076346 -10.07634,-10.076346 h -2.64009 z"
           id="text1"
           aria-label="{code}" /><path
           style="font-weight:600;font-size:190.604px;font-family:Quicksand;-inkscape-font-specification:'Quicksand Semi-Bold';letter-spacing:-11.2745px;word-spacing:0px;fill:#ffffff;stroke-width:0.992734"
           d="m 72.453902,150.67338 q 4.002684,0 6.67114,2.66845 2.85906,2.66846 2.85906,6.67114 0,4.00269 -2.85906,6.67114 -2.668456,2.66846 -6.67114,2.66846 H 8.4109568 q -4.193288,0 -7.0523481,-2.66846 -2.6684561,-2.85906 -2.6684561,-7.05234 V 45.650571 q 0,-4.193288 2.8590601,-6.861744 2.8590601,-2.85906 7.4335562,-2.85906 3.8120801,0 6.6711401,2.85906 3.049664,2.668456 3.049664,6.861744 V 153.91365 l -4.002684,-3.24027 z M 172.68275,67.570031 q 4.19329,0 6.86175,2.859061 2.66845,2.668456 2.66845,6.861744 v 82.340934 q 0,4.19328 -2.66845,7.05234 -2.66846,2.66846 -6.86175,2.66846 -4.00268,0 -6.86174,-2.66846 -2.66846,-2.85906 -2.66846,-7.05234 v -13.72349 l 4.00269,0.57181 q 0,3.43087 -2.85906,7.62416 -2.66846,4.19329 -7.43356,8.19597 -4.7651,3.81208 -11.24564,6.48054 -6.48053,2.47785 -13.91409,2.47785 -13.15167,0 -23.63489,-6.67114 -10.483224,-6.86174 -16.582552,-18.67919 -6.099328,-11.81745 -6.099328,-26.87517 0,-15.43892 6.099328,-27.065766 6.099328,-11.817448 16.391942,-18.488588 10.48322,-6.671141 23.25369,-6.671141 8.19597,0 15.05772,2.668457 7.05234,2.668456 12.19865,6.861744 5.14631,4.193288 7.81477,8.958388 2.85906,4.574496 2.85906,8.767784 L 163.15255,94.6358 V 77.290836 q 0,-4.002684 2.66846,-6.861744 2.85906,-2.859061 6.86174,-2.859061 z m -38.88321,86.153009 q 8.95838,0 15.82013,-4.57449 6.86174,-4.5745 10.67382,-12.38927 3.81208,-8.00536 3.81208,-17.72617 0,-9.91141 -3.81208,-17.72617 -3.81208,-7.814764 -10.67382,-12.38926 -6.86175,-4.574496 -15.82013,-4.574496 -8.76779,0 -15.62953,4.574496 -6.67114,4.574496 -10.67383,12.38926 -3.81208,7.81476 -3.81208,17.72617 0,9.72081 3.81208,17.72617 4.00269,7.81477 10.67383,12.38927 6.86174,4.57449 15.62953,4.57449 z M 248.13313,66.807615 q 13.34228,0 23.63489,6.671141 10.48322,6.67114 16.58255,18.488588 6.09933,11.626846 6.09933,26.875166 0,15.24832 -6.09933,27.06577 -6.09933,11.81745 -16.39194,18.67919 -10.29262,6.67114 -23.25369,6.67114 -7.24295,0 -13.72349,-2.28725 -6.48054,-2.47785 -11.43624,-6.09933 -4.9557,-3.81208 -8.19597,-8.00536 -3.04967,-4.19329 -3.81208,-7.81477 l 5.14631,-2.47785 v 16.58255 q 0,4.00268 -2.85906,6.86174 -2.66846,2.66846 -6.67114,2.66846 -4.19329,0 -6.86175,-2.66846 -2.66846,-2.66845 -2.66846,-6.86174 V 38.026411 q 0,-4.193288 2.66846,-6.861744 2.66846,-2.85906 6.86175,-2.85906 4.00268,0 6.67114,2.85906 2.85906,2.668456 2.85906,6.861744 V 91.586136 L 213.6338,89.8707 q 0.57181,-3.621476 3.62148,-7.433556 3.04966,-4.002684 7.62416,-7.62416 4.7651,-3.621476 10.67382,-5.71812 6.09933,-2.287249 12.57987,-2.287249 z m -2.09665,17.535569 q -9.14899,0 -16.01073,4.574496 -6.67114,4.574496 -10.48322,12.38926 -3.81208,7.62416 -3.81208,17.53557 0,9.91141 3.81208,17.91677 3.81208,7.81477 10.48322,12.38927 6.86174,4.57449 16.01073,4.57449 8.95839,0 15.62953,-4.57449 6.67114,-4.5745 10.48322,-12.57987 4.00268,-8.00537 4.00268,-17.72617 0,-9.91141 -4.00268,-17.53557 -3.81208,-7.814764 -10.48322,-12.38926 -6.67114,-4.574496 -15.62953,-4.574496 z m 52.76851,69.379856 q -1.71543,-2.66845 -1.52483,-6.09933 0.19061,-3.62147 4.00269,-6.09932 2.66845,-1.71544 5.52751,-1.33423 3.04967,0.1906 5.71812,2.85906 5.33691,5.90872 11.81745,9.33959 6.67114,3.43088 16.01074,3.43088 3.81208,-0.19061 7.81476,-1.14363 4.00268,-1.14362 6.86174,-3.81208 2.85906,-2.85906 2.85906,-8.19597 0,-4.7651 -3.04966,-7.62416 -3.04966,-2.85906 -8.00537,-4.5745 -4.9557,-1.90604 -10.67382,-3.43087 -6.09933,-1.71544 -12.38926,-3.81208 -6.09933,-2.09664 -11.05503,-5.33691 -4.95571,-3.43087 -8.19598,-8.76779 -3.04966,-5.33691 -3.04966,-13.151672 0,-8.958388 4.9557,-15.438924 5.14631,-6.480536 13.15168,-10.102012 8.19597,-3.621477 17.72617,-3.621477 5.52752,0 11.62685,1.524833 6.09932,1.334228 11.81744,4.383892 5.71812,3.049664 9.91141,8.005368 1.90604,2.477852 2.09665,5.908724 0.3812,3.430872 -3.04967,6.099328 -2.28725,1.90604 -5.52751,1.715436 -3.24027,-0.190604 -5.33692,-2.096644 -3.62147,-4.574496 -9.33959,-7.052348 -5.71812,-2.668456 -12.96107,-2.668456 -3.62148,0 -7.62416,1.143624 -3.81208,0.95302 -6.48054,3.621476 -2.66846,2.668456 -2.66846,7.814764 0,4.7651 3.04967,7.624158 3.24027,2.85906 8.38657,4.7651 5.14631,1.90604 11.24564,3.43087 5.90872,1.52484 11.62684,3.62148 5.90873,2.09664 10.48322,5.52752 4.7651,3.24026 7.62416,8.57718 3.04967,5.1463 3.04967,13.15167 0,9.3396 -5.52752,16.01074 -5.33691,6.48054 -13.72349,9.91141 -8.19597,3.43087 -17.34496,3.43087 -10.86443,0 -21.72886,-3.81208 -10.67382,-4.00268 -18.10738,-13.72349 z"
           id="text5"
           aria-label="Labs" /></g></g></g><style
     type="text/css"
     id="style1">
	.st0{fill:#FFFFFF;}
	.st1{fill:none;}
</style></svg>
