<?xml version="1.0" encoding="UTF-8" standalone="no"?>
<!-- Created with Inkscape (http://www.inkscape.org/) -->

<svg
   width="178.02647mm"
   height="37.822891mm"
   viewBox="0 0 178.02647 37.822891"
   version="1.1"
   id="svg1"
   xml:space="preserve"
   sodipodi:docname="CodeLabs-logo-darkbg-horizontal.svg"
   inkscape:version="1.4.2 (f4327f4, 2025-05-13)"
   xmlns:inkscape="http://www.inkscape.org/namespaces/inkscape"
   xmlns:sodipodi="http://sodipodi.sourceforge.net/DTD/sodipodi-0.dtd"
   xmlns="http://www.w3.org/2000/svg"
   xmlns:svg="http://www.w3.org/2000/svg"><sodipodi:namedview
     id="namedview1"
     pagecolor="#ffffff"
     bordercolor="#000000"
     borderopacity="0.25"
     inkscape:showpageshadow="2"
     inkscape:pageopacity="0.0"
     inkscape:pagecheckerboard="0"
     inkscape:deskcolor="#d1d1d1"
     inkscape:document-units="mm"
     inkscape:zoom="1.2689661"
     inkscape:cx="293.15204"
     inkscape:cy="1.5760862"
     inkscape:window-width="2560"
     inkscape:window-height="1369"
     inkscape:window-x="-8"
     inkscape:window-y="-8"
     inkscape:window-maximized="1"
     inkscape:current-layer="svg1" /><defs
     id="defs1" /><path
     style="font-size:23.843px;font-family:Consolas;-inkscape-font-specification:Consolas;fill:#9772ee;stroke-width:0.124182"
     d="M 8.5569404,23.44162 H 7.6954258 q -2.2469234,0 -3.3412799,-1.05943 -1.0943564,-1.047788 -1.0943564,-3.189932 v -4.004879 q 0,-0.570463 -0.128063,-1.012862 Q 3.0036635,13.720475 2.677685,13.417781 2.3633485,13.103445 1.8278124,12.940455 1.3039183,12.777466 0.50061412,12.777466 H 4.2449683e-6 V 11.159215 H 0.50061412 q 0.84987258,0 1.38540868,-0.139705 Q 2.421559,10.879805 2.7242533,10.600395 3.0269477,10.309343 3.1433686,9.8669435 3.2597895,9.4245441 3.2597895,8.8191554 V 6.0599801 q 0,-0.9779356 0.2328418,-1.7579556 Q 3.7254731,3.5103623 4.2493671,2.9631841 4.7849033,2.4043638 5.6231337,2.1133115 6.4730063,1.8106172 7.6954258,1.8106172 H 8.5569404 V 3.4405098 H 7.8700571 q -2.7009649,0 -2.7009649,2.6194703 V 8.772587 q 0,2.84067 -2.456481,3.201575 2.4797652,0.244484 2.4797652,3.189932 v 3.981595 q 0,2.666039 2.6776807,2.666039 H 8.5569404 Z M 22.166544,18.237606 q -0.791662,0.302695 -1.629893,0.4424 -0.826588,0.151347 -1.711387,0.151347 -2.770817,0 -4.272647,-1.50183 -1.490188,-1.501829 -1.490188,-4.389068 0,-1.385408 0.430758,-2.514691 0.430757,-1.1292829 1.210777,-1.9325871 0.78002,-0.8033042 1.862735,-1.2340616 1.082714,-0.4423994 2.386628,-0.4423994 0.908083,0 1.699745,0.128063 0.791662,0.128063 1.513472,0.4191152 v 1.932587 Q 21.409808,8.90065 20.618146,8.7260187 19.838126,8.5397452 18.999895,8.5397452 q -0.78002,0 -1.478545,0.3026944 -0.686883,0.2910522 -1.210777,0.8498725 -0.523895,0.5588199 -0.826589,1.3621249 -0.302694,0.803304 -0.302694,1.816166 0,2.11886 1.024504,3.17829 1.036146,1.047788 2.863954,1.047788 0.826588,0 1.594966,-0.186273 0.78002,-0.186273 1.50183,-0.55882 z m 14.20335,-5.506708 q 0,1.362124 -0.384189,2.503049 -0.384189,1.129283 -1.105999,1.944229 -0.721809,0.803304 -1.757955,1.257346 -1.036146,0.442399 -2.351702,0.442399 -1.257346,0 -2.258566,-0.384189 -0.989578,-0.395831 -1.688103,-1.152567 -0.686883,-0.756736 -1.05943,-1.874376 -0.360905,-1.117641 -0.360905,-2.572902 0,-1.362125 0.384189,-2.479765 0.384189,-1.129283 1.105999,-1.9325872 0.721809,-0.8149463 1.757955,-1.2573457 1.036146,-0.4540416 2.351702,-0.4540416 1.257346,0 2.246924,0.3958311 1.001219,0.384189 1.688103,1.1409248 0.698525,0.7450938 1.05943,1.8627346 0.372547,1.11764 0.372547,2.56126 z m -2.072292,0.09314 q 0,-1.082714 -0.244484,-1.886018 -0.232842,-0.814947 -0.675241,-1.3504827 -0.4424,-0.5471782 -1.082715,-0.8149463 -0.628673,-0.2794101 -1.408693,-0.2794101 -0.908083,0 -1.56004,0.3609048 -0.640315,0.3492627 -1.05943,0.9430093 -0.407473,0.593747 -0.605389,1.385409 -0.186273,0.78002 -0.186273,1.641534 0,1.082715 0.232842,1.897661 0.244484,0.814946 0.686883,1.362125 0.4424,0.535536 1.071072,0.814946 0.628673,0.267768 1.420335,0.267768 0.908083,0 1.548398,-0.349263 0.651957,-0.360905 1.059431,-0.954651 0.419115,-0.593747 0.605388,-1.373767 0.197916,-0.791662 0.197916,-1.664819 z m 4.412352,0.244484 q 0,-1.490187 0.407473,-2.642754 0.407473,-1.1642092 1.152567,-1.9558713 0.756736,-0.8033042 1.804524,-1.2107774 1.05943,-0.4191152 2.351702,-0.4191152 0.558821,0 1.094357,0.069852 0.547178,0.069853 1.071072,0.2211997 v -4.912962 h 2.037366 V 18.668364 h -1.816166 l -0.06985,-2.211998 q -0.849872,1.234062 -1.83945,1.827809 -0.989578,0.593746 -2.142145,0.593746 -1.001219,0 -1.769597,-0.419115 -0.756736,-0.419115 -1.268988,-1.175851 -0.50061,-0.768378 -0.756736,-1.83945 -0.256126,-1.071073 -0.256126,-2.374987 z m 2.072292,-0.128063 q 0,2.118861 0.617031,3.166649 0.628673,1.036146 1.769598,1.036146 0.768377,0 1.61825,-0.686884 0.861515,-0.686883 1.804524,-2.037365 V 8.9937867 Q 46.091039,8.7609449 45.48565,8.644524 44.880262,8.5164611 44.286515,8.5164611 q -1.653177,0 -2.584544,1.0710722 -0.919725,1.0710727 -0.919725,3.3529217 z m 21.502941,-0.733451 q 0,0.430757 -0.01164,0.721809 -0.01164,0.291052 -0.03493,0.547178 h -8.207673 q 0,1.792882 1.001219,2.759176 1.00122,0.954651 2.887239,0.954651 0.512252,0 1.024504,-0.03493 0.512252,-0.04657 0.989577,-0.116421 0.477326,-0.06985 0.908083,-0.151347 0.4424,-0.09314 0.814947,-0.197916 v 1.664819 q -0.826589,0.232842 -1.874377,0.372547 -1.036146,0.151347 -2.153786,0.151347 -1.50183,0 -2.584544,-0.407473 -1.082715,-0.407473 -1.78124,-1.175851 -0.686884,-0.78002 -1.024504,-1.897661 -0.325979,-1.129282 -0.325979,-2.549617 0,-1.234062 0.349263,-2.328418 0.360905,-1.105999 1.036146,-1.9325874 0.686883,-0.8382305 1.676461,-1.3271983 0.989578,-0.4889678 2.246923,-0.4889678 1.22242,0 2.165429,0.384189 0.943009,0.384189 1.583324,1.0943565 0.651957,0.6985254 0.977936,1.7113872 0.337621,1.0012198 0.337621,2.2469238 z m -2.107219,-0.291053 q 0.03493,-0.78002 -0.151347,-1.420335 -0.186273,-0.6519567 -0.582104,-1.1176403 -0.384189,-0.4656836 -0.966294,-0.7218096 -0.582104,-0.267768 -1.350482,-0.267768 -0.663599,0 -1.210778,0.2561259 -0.547178,0.256126 -0.943009,0.7218096 -0.395831,0.4656836 -0.640315,1.1176404 -0.244484,0.651957 -0.302694,1.431977 z M 66.324992,1.8106172 h 0.861515 q 2.246923,0 3.341279,1.0594302 1.094357,1.0477881 1.094357,3.1899327 v 2.6893228 q 0,0.5704624 0.128063,1.0245039 0.128063,0.4423992 0.442399,0.7567362 0.325979,0.302694 0.861515,0.465683 0.535536,0.162989 1.33884,0.162989 h 0.50061 v 1.618251 h -0.50061 q -0.849872,0 -1.39705,0.139705 -0.535537,0.139705 -0.838231,0.430757 -0.302694,0.279411 -0.419115,0.72181 -0.116421,0.442399 -0.116421,1.047788 v 4.074732 q 0,0.977935 -0.232842,1.757955 -0.232842,0.791662 -0.756736,1.338841 -0.523894,0.55882 -1.373766,0.849872 -0.849873,0.302694 -2.072292,0.302694 h -0.861515 v -1.629892 h 0.698525 q 2.689323,0 2.689323,-2.61947 v -4.028164 q 0,-2.84067 2.456481,-3.189932 -2.479765,-0.267768 -2.479765,-3.201575 V 6.1065484 q 0,-2.6660386 -2.666039,-2.6660386 h -0.698525 z"
     id="text1"
     aria-label="{code}" /><path
     style="font-weight:600;font-size:50.4306px;font-family:Quicksand;-inkscape-font-specification:'Quicksand Semi-Bold';letter-spacing:-2.98304px;word-spacing:0px;fill:#ffffff;stroke-width:0.262661"
     d="m 97.915012,32.376451 q 1.059043,0 1.765071,0.706028 0.756457,0.706028 0.756457,1.765071 0,1.059043 -0.756457,1.765071 -0.706028,0.706028 -1.765071,0.706028 H 80.970331 q -1.109473,0 -1.865932,-0.706028 Q 78.39837,35.856162 78.39837,34.746689 V 4.5891904 q 0,-1.1094732 0.756459,-1.8155016 0.756459,-0.756459 1.966794,-0.756459 1.008612,0 1.765071,0.756459 0.806889,0.7060284 0.806889,1.8155016 V 33.233771 l -1.059042,-0.85732 z M 124.43387,10.388709 q 1.10948,0 1.81551,0.756459 0.70602,0.706029 0.70602,1.815502 v 21.786019 q 0,1.109473 -0.70602,1.865932 -0.70603,0.706028 -1.81551,0.706028 -1.05904,0 -1.8155,-0.706028 -0.70603,-0.756459 -0.70603,-1.865932 v -3.631003 l 1.05905,0.151291 q 0,0.907751 -0.75646,2.017224 -0.70603,1.109474 -1.9668,2.168516 -1.26076,1.008612 -2.9754,1.71464 -1.71464,0.655598 -3.68143,0.655598 -3.47972,0 -6.2534,-1.765071 -2.77368,-1.815501 -4.38746,-4.942198 -1.61378,-3.126698 -1.61378,-7.110715 0,-4.084878 1.61378,-7.161145 1.61378,-3.126697 4.33703,-4.891768 2.77368,-1.765071 6.15253,-1.765071 2.16852,0 3.98402,0.706028 1.86593,0.706029 3.22756,1.815502 1.36163,1.109473 2.06765,2.370238 0.75646,1.210334 0.75646,2.319808 l -1.56335,0.151291 V 12.96067 q 0,-1.059043 0.70603,-1.815502 0.75646,-0.756459 1.8155,-0.756459 z M 114.14603,33.18334 q 2.37024,0 4.18574,-1.210334 1.8155,-1.210335 2.82412,-3.277989 1.00861,-2.118085 1.00861,-4.690046 0,-2.622391 -1.00861,-4.690046 -1.00862,-2.067654 -2.82412,-3.277989 -1.8155,-1.210334 -4.18574,-1.210334 -2.31981,0 -4.13531,1.210334 -1.76507,1.210335 -2.82411,3.277989 -1.00861,2.067655 -1.00861,4.690046 0,2.571961 1.00861,4.690046 1.05904,2.067654 2.82411,3.277989 1.8155,1.210334 4.13531,1.210334 z m 30.25074,-22.996353 q 3.53014,0 6.2534,1.765071 2.77368,1.765071 4.38746,4.891768 1.61378,3.076267 1.61378,7.110715 0,4.034447 -1.61378,7.161145 -1.61378,3.126697 -4.33703,4.942198 -2.72326,1.765071 -6.15254,1.765071 -1.91636,0 -3.631,-0.605167 -1.71464,-0.655598 -3.02584,-1.613779 -1.31119,-1.008612 -2.16851,-2.118085 -0.80689,-1.109473 -1.00861,-2.067655 l 1.36162,-0.655598 v 4.387463 q 0,1.059042 -0.75646,1.815501 -0.70602,0.706028 -1.76507,0.706028 -1.10947,0 -1.8155,-0.706028 -0.70603,-0.706028 -0.70603,-1.815501 V 2.5719664 q 0,-1.1094731 0.70603,-1.81550154 0.70603,-0.7564589853662 1.8155,-0.7564589853662 1.05905,0 1.76507,0.7564589853662 0.75646,0.70602844 0.75646,1.81550154 V 16.742965 l -0.80689,-0.453876 q 0.1513,-0.958181 0.95819,-1.966793 0.80688,-1.059043 2.01722,-2.017224 1.26076,-0.958181 2.82411,-1.512918 1.61378,-0.605167 3.32842,-0.605167 z m -0.55473,4.639615 q -2.42067,0 -4.23617,1.210334 -1.76508,1.210335 -2.77369,3.277989 -1.00861,2.017224 -1.00861,4.639616 0,2.622391 1.00861,4.740476 1.00861,2.067654 2.77369,3.277989 1.8155,1.210334 4.23617,1.210334 2.37023,0 4.1353,-1.210334 1.76508,-1.210335 2.77369,-3.32842 1.05904,-2.118085 1.05904,-4.690045 0,-2.622392 -1.05904,-4.639616 -1.00861,-2.067654 -2.77369,-3.277989 -1.76507,-1.210334 -4.1353,-1.210334 z m 13.96165,18.356738 q -0.45387,-0.706028 -0.40344,-1.613779 0.0504,-0.958181 1.05904,-1.613779 0.70603,-0.453876 1.46249,-0.353014 0.80689,0.05043 1.51292,0.756459 1.41205,1.563348 3.12669,2.471099 1.76507,0.907751 4.23617,0.907751 1.00861,-0.05043 2.06766,-0.302584 1.05904,-0.302583 1.8155,-1.008612 0.75646,-0.756459 0.75646,-2.168516 0,-1.260765 -0.80689,-2.017224 -0.80689,-0.756459 -2.11809,-1.210334 -1.31119,-0.504306 -2.82411,-0.907751 -1.61378,-0.453875 -3.27799,-1.008612 -1.61378,-0.554736 -2.92497,-1.412056 -1.3112,-0.907751 -2.16852,-2.319808 -0.80689,-1.412057 -0.80689,-3.479711 0,-2.370239 1.3112,-4.084879 1.36162,-1.71464 3.47971,-2.672822 2.16851,-0.958181 4.69004,-0.958181 1.46249,0 3.07627,0.403445 1.61378,0.353014 3.1267,1.159903 1.51291,0.80689 2.62239,2.118086 0.5043,0.655597 0.55473,1.563348 0.10087,0.907751 -0.80688,1.613779 -0.60517,0.504306 -1.46249,0.453876 -0.85732,-0.05043 -1.41206,-0.554737 -0.95818,-1.210334 -2.4711,-1.865932 -1.51292,-0.706028 -3.42928,-0.706028 -0.95818,0 -2.01722,0.302583 -1.00862,0.252153 -1.71464,0.958182 -0.70603,0.706028 -0.70603,2.067654 0,1.260765 0.80689,2.017224 0.85732,0.756459 2.21894,1.260765 1.36163,0.504306 2.97541,0.907751 1.56335,0.403445 3.07627,0.958181 1.56334,0.554737 2.77368,1.462488 1.26076,0.85732 2.01722,2.269377 0.80689,1.361626 0.80689,3.479711 0,2.471099 -1.46248,4.23617 -1.41206,1.714641 -3.63101,2.622391 -2.16851,0.907751 -4.58918,0.907751 -2.87455,0 -5.74909,-1.008612 -2.82411,-1.059042 -4.79091,-3.631003 z"
     id="text5"
     aria-label="Labs" /><style
     type="text/css"
     id="style1">
	.st0{fill:#FFFFFF;}
	.st1{fill:none;}
</style></svg>
