<?xml version="1.0" encoding="UTF-8" standalone="no"?>
<!-- Created with Inkscape (http://www.inkscape.org/) -->

<svg
   width="100.192mm"
   height="62.339851mm"
   viewBox="0 0 100.192 62.339851"
   version="1.1"
   id="svg1"
   xml:space="preserve"
   sodipodi:docname="CodeLabs-logo-darkbg-vertical.svg"
   inkscape:version="1.4.2 (f4327f4, 2025-05-13)"
   xmlns:inkscape="http://www.inkscape.org/namespaces/inkscape"
   xmlns:sodipodi="http://sodipodi.sourceforge.net/DTD/sodipodi-0.dtd"
   xmlns="http://www.w3.org/2000/svg"
   xmlns:svg="http://www.w3.org/2000/svg"><sodipodi:namedview
     id="namedview1"
     pagecolor="#ffffff"
     bordercolor="#000000"
     borderopacity="0.25"
     inkscape:showpageshadow="2"
     inkscape:pageopacity="0.0"
     inkscape:pagecheckerboard="0"
     inkscape:deskcolor="#d1d1d1"
     inkscape:document-units="mm"
     inkscape:zoom="2.461641"
     inkscape:cx="150.71247"
     inkscape:cy="56.872631"
     inkscape:window-width="2560"
     inkscape:window-height="1369"
     inkscape:window-x="-8"
     inkscape:window-y="-8"
     inkscape:window-maximized="1"
     inkscape:current-layer="svg1" /><defs
     id="defs1" /><path
     style="font-size:23.843px;font-family:Consolas;-inkscape-font-specification:Consolas;fill:#9772ee;stroke-width:0.124182"
     d="M 8.5569405,21.630969 H 7.6954259 q -2.2469234,0 -3.3412799,-1.05943 Q 3.2597896,19.52375 3.2597896,17.381606 v -4.004879 q 0,-0.570463 -0.128063,-1.012862 Q 3.0036636,11.909824 2.6776851,11.607129 2.3633486,11.292793 1.8278125,11.129803 1.3039184,10.966814 0.50061424,10.966814 H 4.3641776e-6 V 9.3485637 H 0.50061424 q 0.84987256,0 1.38540876,-0.1397051 Q 2.4215591,9.0691536 2.7242534,8.7897434 3.0269478,8.4986911 3.1433687,8.0562917 3.2597896,7.6138923 3.2597896,7.0085036 V 4.2493283 q 0,-0.9779356 0.2328418,-1.7579556 Q 3.7254732,1.6997106 4.2493672,1.1525323 4.7849034,0.593712 5.6231339,0.30265975 6.4730064,-3.4593046e-5 7.6954259,-3.4593046e-5 H 8.5569405 V 1.629858 H 7.8700572 q -2.7009649,0 -2.7009649,2.6194703 v 2.712607 q 0,2.8406699 -2.456481,3.2015747 2.4797652,0.244484 2.4797652,3.189933 v 3.981594 q 0,2.666039 2.6776807,2.666039 H 8.5569405 Z M 22.166544,16.426954 q -0.791662,0.302695 -1.629893,0.4424 -0.826588,0.151347 -1.711387,0.151347 -2.770817,0 -4.272647,-1.50183 -1.490187,-1.501829 -1.490187,-4.389068 0,-1.3854082 0.430757,-2.514691 0.430757,-1.1292827 1.210777,-1.9325869 0.78002,-0.8033042 1.862735,-1.2340616 1.082714,-0.4423994 2.386628,-0.4423994 0.908083,0 1.699745,0.128063 0.791662,0.128063 1.513472,0.4191153 V 7.4858293 Q 21.409808,7.0899982 20.618146,6.9153669 19.838126,6.7290935 18.999895,6.7290935 q -0.78002,0 -1.478545,0.3026943 -0.686883,0.2910522 -1.210777,0.8498726 -0.523894,0.5588203 -0.826589,1.3621245 -0.302694,0.8033041 -0.302694,1.8161661 0,2.11886 1.024504,3.178291 1.036146,1.047788 2.863954,1.047788 0.826588,0 1.594966,-0.186274 0.78002,-0.186273 1.50183,-0.55882 z m 14.20335,-5.506708 q 0,1.362124 -0.384189,2.503049 -0.384189,1.129283 -1.105999,1.944229 -0.721809,0.803304 -1.757955,1.257346 -1.036146,0.442399 -2.351702,0.442399 -1.257346,0 -2.258566,-0.384189 -0.989577,-0.395831 -1.688103,-1.152566 -0.686883,-0.756736 -1.05943,-1.874377 -0.360905,-1.117641 -0.360905,-2.572902 0,-1.3621244 0.384189,-2.479765 0.384189,-1.1292828 1.105999,-1.932587 0.721809,-0.8149463 1.757955,-1.2573457 1.036146,-0.4540415 2.351702,-0.4540415 1.257346,0 2.246924,0.395831 1.00122,0.384189 1.688103,1.1409249 0.698525,0.7450937 1.05943,1.8627344 0.372547,1.1176406 0.372547,2.5612599 z m -2.072292,0.09314 q 0,-1.0827148 -0.244484,-1.886019 Q 33.820276,8.3124177 33.377877,7.7768816 32.935477,7.2297033 32.295162,6.9619353 31.66649,6.6825251 30.88647,6.6825251 q -0.908083,0 -1.560041,0.3609048 -0.640314,0.3492627 -1.05943,0.9430093 -0.407473,0.5937466 -0.605388,1.3854087 -0.186274,0.7800201 -0.186274,1.6415351 0,1.082714 0.232842,1.89766 0.244484,0.814947 0.686883,1.362125 0.4424,0.535536 1.071073,0.814946 0.628672,0.267768 1.420335,0.267768 0.908083,0 1.548398,-0.349263 0.651957,-0.360904 1.05943,-0.954651 0.419115,-0.593747 0.605388,-1.373767 0.197916,-0.791662 0.197916,-1.664818 z m 4.412352,0.244483 q 0,-1.490187 0.407473,-2.642754 0.407473,-1.164209 1.152567,-1.9558711 0.756736,-0.8033042 1.804524,-1.2107774 1.05943,-0.4191152 2.351702,-0.4191152 0.558821,0 1.094357,0.069853 0.547178,0.069853 1.071072,0.2211998 V 0.40743856 h 2.037366 V 16.857712 h -1.816166 l -0.06985,-2.211997 q -0.849872,1.234061 -1.83945,1.827808 -0.989578,0.593746 -2.142144,0.593746 -1.00122,0 -1.769598,-0.419115 -0.756736,-0.419115 -1.268988,-1.175851 -0.50061,-0.768378 -0.756736,-1.83945 -0.256126,-1.071072 -0.256126,-2.374987 z m 2.072292,-0.128063 q 0,2.118861 0.617031,3.166649 0.628673,1.036146 1.769598,1.036146 0.768378,0 1.61825,-0.686883 0.861515,-0.686884 1.804524,-2.037366 V 7.183135 q -0.50061,-0.2328418 -1.105998,-0.3492627 -0.605389,-0.128063 -1.199136,-0.128063 -1.653176,0 -2.584544,1.0710723 -0.919725,1.0710722 -0.919725,3.3529214 z m 21.502941,-0.733451 q 0,0.430757 -0.01164,0.721809 -0.01164,0.291053 -0.03493,0.547179 h -8.207673 q 0,1.792881 1.00122,2.759175 1.001219,0.954651 2.887238,0.954651 0.512252,0 1.024504,-0.03493 0.512252,-0.04657 0.989577,-0.116421 0.477326,-0.06985 0.908083,-0.151347 0.4424,-0.09314 0.814947,-0.197916 v 1.664819 q -0.826589,0.232842 -1.874377,0.372547 -1.036146,0.151347 -2.153786,0.151347 -1.50183,0 -2.584544,-0.407473 -1.082715,-0.407473 -1.78124,-1.175851 -0.686883,-0.78002 -1.024504,-1.897661 -0.325979,-1.129282 -0.325979,-2.549617 0,-1.2340618 0.349263,-2.3284182 0.360905,-1.1059986 1.036146,-1.932587 0.686883,-0.8382305 1.676461,-1.3271983 0.989578,-0.4889677 2.246923,-0.4889677 1.22242,0 2.165429,0.3841889 0.94301,0.384189 1.583324,1.0943565 0.651958,0.6985254 0.977936,1.7113872 0.337621,1.0012198 0.337621,2.2469236 z M 60.177968,10.1053 Q 60.212895,9.3252795 60.026621,8.6849646 59.840348,8.0330075 59.444517,7.5673239 59.060328,7.1016403 58.478223,6.8455144 57.896119,6.5777463 57.127741,6.5777463 q -0.663599,0 -1.210778,0.256126 -0.547178,0.2561259 -0.943009,0.7218095 -0.395831,0.4656836 -0.640315,1.1176407 -0.244484,0.651957 -0.302694,1.4319775 z M 66.324992,-3.4593046e-5 h 0.861515 q 2.246923,0 3.34128,1.059430193046 1.094356,1.0477881 1.094356,3.1899327 v 2.6893228 q 0,0.5704624 0.128063,1.0245039 0.128063,0.4423994 0.442399,0.7567359 0.325979,0.3026943 0.861515,0.4656836 0.535536,0.1629892 1.33884,0.1629892 h 0.50061 v 1.6182503 h -0.50061 q -0.849872,0 -1.39705,0.139705 -0.535536,0.139705 -0.838231,0.430758 -0.302694,0.27941 -0.419115,0.721809 -0.116421,0.4424 -0.116421,1.047788 v 4.074732 q 0,0.977935 -0.232842,1.757955 -0.232842,0.791663 -0.756736,1.338841 -0.523894,0.55882 -1.373766,0.849872 -0.849873,0.302695 -2.072292,0.302695 h -0.861515 v -1.629893 h 0.698525 q 2.689323,0 2.689323,-2.61947 v -4.028163 q 0,-2.84067 2.456481,-3.189933 Q 69.689556,9.8957419 69.689556,6.9619353 V 4.2958966 q 0,-2.6660386 -2.666039,-2.6660386 h -0.698525 z"
     id="text1"
     aria-label="{code}" /><path
     style="font-weight:600;font-size:50.4306px;font-family:Quicksand;-inkscape-font-specification:'Quicksand Semi-Bold';letter-spacing:-2.98304px;word-spacing:0px;fill:#ffffff;stroke-width:0.262661"
     d="m 20.080536,56.893418 q 1.059042,0 1.765071,0.706029 0.756459,0.706028 0.756459,1.765071 0,1.059042 -0.756459,1.765071 -0.706029,0.706028 -1.765071,0.706028 H 3.1358544 q -1.1094731,0 -1.8659321,-0.706028 Q 0.56389389,60.37313 0.56389389,59.263657 V 29.106158 q 0,-1.109473 0.75645901,-1.815501 0.756459,-0.756459 1.9667933,-0.756459 1.008612,0 1.765071,0.756459 0.8068896,0.706028 0.8068896,1.815501 V 57.750739 L 4.8000642,56.893418 Z M 46.599398,34.905677 q 1.109473,0 1.815502,0.756459 0.706028,0.706028 0.706028,1.815502 v 21.786019 q 0,1.109473 -0.706028,1.865932 -0.706029,0.706028 -1.815502,0.706028 -1.059043,0 -1.815502,-0.706028 -0.706028,-0.756459 -0.706028,-1.865932 v -3.631004 l 1.059043,0.151292 q 0,0.907751 -0.756459,2.017224 -0.706029,1.109473 -1.966794,2.168516 -1.260765,1.008612 -2.975405,1.71464 -1.714641,0.655598 -3.681434,0.655598 -3.479711,0 -6.253394,-1.765071 -2.773683,-1.815501 -4.387462,-4.942199 -1.613779,-3.126697 -1.613779,-7.110714 0,-4.084879 1.613779,-7.161145 1.613779,-3.126697 4.337031,-4.891768 2.773683,-1.765071 6.152533,-1.765071 2.168516,0 3.984018,0.706028 1.865932,0.706028 3.227558,1.815502 1.361626,1.109473 2.067655,2.370238 0.756459,1.210334 0.756459,2.319807 l -1.563349,0.151292 v -4.589184 q 0,-1.059043 0.706028,-1.815502 0.756459,-0.756459 1.815502,-0.756459 z M 36.311556,57.700308 q 2.370238,0 4.185739,-1.210334 1.815502,-1.210335 2.824114,-3.277989 1.008612,-2.118086 1.008612,-4.690046 0,-2.622391 -1.008612,-4.690046 -1.008612,-2.067654 -2.824114,-3.277989 -1.815501,-1.210334 -4.185739,-1.210334 -2.319808,0 -4.135309,1.210334 -1.765071,1.210335 -2.824114,3.277989 -1.008612,2.067655 -1.008612,4.690046 0,2.57196 1.008612,4.690046 1.059043,2.067654 2.824114,3.277989 1.815501,1.210334 4.135309,1.210334 z m 30.25074,-22.996353 q 3.530142,0 6.253394,1.765071 2.773683,1.765071 4.387462,4.891768 1.613779,3.076266 1.613779,7.110714 0,4.034448 -1.613779,7.161145 -1.613779,3.126698 -4.337031,4.942199 -2.723253,1.765071 -6.152533,1.765071 -1.916363,0 -3.631004,-0.605167 -1.71464,-0.655598 -3.025836,-1.613779 -1.311195,-1.008612 -2.168515,-2.118085 -0.80689,-1.109474 -1.008612,-2.067655 l 1.361626,-0.655598 v 4.387462 q 0,1.059043 -0.756459,1.815502 -0.706028,0.706028 -1.765071,0.706028 -1.109473,0 -1.815502,-0.706028 -0.706028,-0.706029 -0.706028,-1.815502 V 27.088934 q 0,-1.109473 0.706028,-1.815501 0.706029,-0.756459 1.815502,-0.756459 1.059043,0 1.765071,0.756459 0.756459,0.706028 0.756459,1.815501 v 14.170999 l -0.80689,-0.453876 q 0.151292,-0.958181 0.958182,-1.966793 0.806889,-1.059043 2.017224,-2.017224 1.260765,-0.958182 2.824113,-1.512918 1.613779,-0.605167 3.32842,-0.605167 z m -0.554737,4.639615 q -2.420669,0 -4.23617,1.210334 -1.765071,1.210335 -2.773683,3.277989 -1.008612,2.017224 -1.008612,4.639615 0,2.622391 1.008612,4.740477 1.008612,2.067654 2.773683,3.277989 1.815501,1.210334 4.23617,1.210334 2.370238,0 4.135309,-1.210334 1.765071,-1.210335 2.773683,-3.32842 1.059043,-2.118085 1.059043,-4.690046 0,-2.622391 -1.059043,-4.639615 -1.008612,-2.067654 -2.773683,-3.277989 -1.765071,-1.210334 -4.135309,-1.210334 z m 13.961657,18.356738 q -0.453876,-0.706028 -0.403445,-1.613779 0.05043,-0.958182 1.059042,-1.613779 0.706029,-0.453876 1.462488,-0.353015 0.806889,0.05043 1.512918,0.756459 1.412057,1.563349 3.126697,2.4711 1.765071,0.907751 4.23617,0.907751 1.008612,-0.05043 2.067655,-0.302584 1.059042,-0.302584 1.815501,-1.008612 0.756459,-0.756459 0.756459,-2.168516 0,-1.260765 -0.806889,-2.017224 -0.80689,-0.756459 -2.118085,-1.210334 -1.311196,-0.504306 -2.824114,-0.907751 -1.613779,-0.453875 -3.277989,-1.008612 -1.613779,-0.554737 -2.924975,-1.412057 -1.311195,-0.907751 -2.168515,-2.319807 -0.80689,-1.412057 -0.80689,-3.479712 0,-2.370238 1.311196,-4.084878 1.361626,-1.714641 3.479711,-2.672822 2.168516,-0.958181 4.690046,-0.958181 1.462487,0 3.076266,0.403444 1.613779,0.353015 3.126697,1.159904 1.512918,0.80689 2.622392,2.118085 0.504306,0.655598 0.554736,1.563349 0.100861,0.907751 -0.806889,1.613779 -0.605168,0.504306 -1.462488,0.453876 -0.85732,-0.05043 -1.412057,-0.554737 -0.958181,-1.210334 -2.471099,-1.865932 -1.512918,-0.706029 -3.429281,-0.706029 -0.958181,0 -2.017224,0.302584 -1.008612,0.252153 -1.71464,0.958181 -0.706028,0.706029 -0.706028,2.067655 0,1.260765 0.806889,2.017224 0.85732,0.756459 2.218947,1.260765 1.361626,0.504306 2.975405,0.907751 1.563348,0.403445 3.076266,0.958181 1.563349,0.554737 2.773683,1.462487 1.260765,0.857321 2.017224,2.269377 0.806894,1.361627 0.806894,3.479712 0,2.471099 -1.462491,4.23617 -1.412057,1.71464 -3.631004,2.622391 -2.168515,0.907751 -4.589184,0.907751 -2.874544,0 -5.749088,-1.008612 -2.824114,-1.059043 -4.790907,-3.631003 z"
     id="text5"
     aria-label="Labs" /><style
     type="text/css"
     id="style1">
	.st0{fill:#FFFFFF;}
	.st1{fill:none;}
</style></svg>
