<?xml version="1.0" encoding="UTF-8" standalone="no"?>
<!-- Created with Inkscape (http://www.inkscape.org/) -->

<svg
   width="139.14655mm"
   height="46.729691mm"
   viewBox="0 0 139.14655 46.729691"
   version="1.1"
   id="svg1"
   xml:space="preserve"
   sodipodi:docname="CodeLabs-logo-compact.svg"
   inkscape:version="1.4.2 (f4327f4, 2025-05-13)"
   xmlns:inkscape="http://www.inkscape.org/namespaces/inkscape"
   xmlns:sodipodi="http://sodipodi.sourceforge.net/DTD/sodipodi-0.dtd"
   xmlns="http://www.w3.org/2000/svg"
   xmlns:svg="http://www.w3.org/2000/svg"><sodipodi:namedview
     id="namedview1"
     pagecolor="#ffffff"
     bordercolor="#000000"
     borderopacity="0.25"
     inkscape:showpageshadow="2"
     inkscape:pageopacity="0.0"
     inkscape:pagecheckerboard="0"
     inkscape:deskcolor="#d1d1d1"
     inkscape:document-units="mm"
     inkscape:zoom="2.2960281"
     inkscape:cx="280.91991"
     inkscape:cy="87.542483"
     inkscape:window-width="2560"
     inkscape:window-height="1369"
     inkscape:window-x="-8"
     inkscape:window-y="-8"
     inkscape:window-maximized="1"
     inkscape:current-layer="svg1" /><defs
     id="defs1" /><g
     id="layer1"
     transform="translate(-35.426726,-125.13516)"><g
       style="fill:none"
       id="g1"
       transform="matrix(0.26458333,0,0,0.26458333,81.227084,120.87463)"><g
         id="g2"
         transform="translate(39.293711,312.87088)"><path
           style="font-size:194.677px;font-family:Consolas;-inkscape-font-specification:Consolas;letter-spacing:5.36px;fill:#8455f0;stroke-width:1.01395"
           d="m -142.53042,-120.15196 h -7.03422 q -18.34603,0 -27.2814,-8.6502 -8.93537,-8.55514 -8.93537,-26.04565 v -32.69965 q 0,-4.6578 -1.04563,-8.26997 -1.04563,-3.70723 -3.70723,-6.17872 -2.56654,-2.56654 -6.93917,-3.89734 -4.27757,-1.3308 -10.83651,-1.3308 h -4.08746 v -13.21294 h 4.08746 q 6.93917,0 11.3118,-1.14069 4.37263,-1.14068 6.84411,-3.42205 2.47149,-2.37643 3.42206,-5.9886 0.95057,-3.61217 0.95057,-8.55514 v -22.52854 q 0,-7.9848 1.90114,-14.35363 1.90115,-6.46388 6.17872,-10.93157 4.37262,-4.56274 11.21674,-6.93917 6.93917,-2.47149 16.92017,-2.47149 h 7.03422 v 13.308 h -5.60837 q -22.05325,0 -22.05325,21.38786 v 22.14831 q 0,23.19394 -20.05706,26.14071 20.24717,1.9962 20.24717,26.04565 v 32.50954 q 0,21.76808 21.86314,21.76808 h 5.60837 z m 386.07914,-176.61615 h 7.03423 q 18.34603,0 27.2814,8.6502 8.93537,8.55514 8.93537,26.04566 v 21.95819 q 0,4.6578 1.04562,8.36503 1.04563,3.61217 3.61218,6.17871 2.6616,2.47149 7.03422,3.80229 4.37263,1.3308 10.93157,1.3308 h 4.08746 v 13.21294 h -4.08746 q -6.93917,0 -11.40685,1.14069 -4.37263,1.14068 -6.84412,3.51711 -2.47148,2.28137 -3.42205,5.89354 -0.95057,3.61217 -0.95057,8.55514 v 33.27 q 0,7.9848 -1.90115,14.35363 -1.90114,6.46388 -6.17871,10.93157 -4.27757,4.56274 -11.21674,6.93917 -6.93917,2.47148 -16.92017,2.47148 h -7.03423 v -13.308 h 5.70343 q 21.9582,0 21.9582,-21.38785 v -32.88977 q 0,-23.19394 20.05705,-26.04565 -20.24717,-2.18632 -20.24717,-26.14071 v -21.76808 q 0,-21.76809 -21.76808,-21.76809 h -5.70343 z"
           id="text1"
           aria-label="{   }" /><path
           style="font-weight:600;font-size:190.604px;font-family:Quicksand;-inkscape-font-specification:'Quicksand Semi-Bold';letter-spacing:-11.2745px;word-spacing:0px;fill:#ffffff;stroke-width:0.992734"
           d="m -63.022607,-160.92259 q 4.002684,0 6.67114,2.66846 2.85906,2.66846 2.85906,6.67114 0,4.00268 -2.85906,6.67114 -2.668456,2.66846 -6.67114,2.66846 h -64.042943 q -4.19329,0 -7.05235,-2.66846 -2.66846,-2.85906 -2.66846,-7.05235 v -113.98119 q 0,-4.19329 2.85906,-6.86175 2.85906,-2.85906 7.43356,-2.85906 3.81208,0 6.67114,2.85906 3.04966,2.66846 3.04966,6.86175 v 108.26307 l -4.00268,-3.24027 z m 100.228851,-83.10334 q 4.193288,0 6.861744,2.85906 2.668456,2.66846 2.668456,6.86174 v 82.34093 q 0,4.19329 -2.668456,7.05235 -2.668456,2.66846 -6.861744,2.66846 -4.002684,0 -6.861744,-2.66846 -2.668456,-2.85906 -2.668456,-7.05235 v -13.72349 l 4.002684,0.57182 q 0,3.43087 -2.85906,7.62416 -2.668456,4.19328 -7.433556,8.19597 -4.7651,3.81208 -11.245636,6.48054 -6.4805364,2.47785 -13.9140926,2.47785 -13.1516764,0 -23.6348964,-6.67114 -10.48322,-6.86175 -16.582548,-18.6792 -6.099329,-11.81744 -6.099329,-26.87516 0,-15.43892 6.099329,-27.06577 6.099328,-11.81745 16.391944,-18.48859 10.48322,-6.67114 23.2536884,-6.67114 8.1959722,0 15.0577166,2.66846 7.052348,2.66846 12.198656,6.86174 5.146308,4.19329 7.814764,8.95839 2.85906,4.5745 2.85906,8.76779 l -5.908724,0.57181 v -17.34497 q 0,-4.00268 2.668456,-6.86174 2.85906,-2.85906 6.861744,-2.85906 z m -38.8832165,86.15301 q 8.9583881,0 15.8201325,-4.5745 6.861744,-4.57449 10.673824,-12.38926 3.81208,-8.00537 3.81208,-17.72617 0,-9.91141 -3.81208,-17.72617 -3.81208,-7.81477 -10.673824,-12.38926 -6.8617444,-4.5745 -15.8201325,-4.5745 -8.7677845,0 -15.6295285,4.5745 -6.67114,4.57449 -10.673824,12.38926 -3.81208,7.81476 -3.81208,17.72617 0,9.7208 3.81208,17.72617 4.002684,7.81477 10.673824,12.38926 6.861744,4.5745 15.6295285,4.5745 z M 112.65662,-244.78835 q 13.34228,0 23.63489,6.67114 10.48322,6.67114 16.58255,18.48859 6.09933,11.62685 6.09933,26.87517 0,15.24832 -6.09933,27.06576 -6.09933,11.81745 -16.39194,18.6792 -10.29262,6.67114 -23.25369,6.67114 -7.24295,0 -13.723489,-2.28725 -6.480537,-2.47785 -11.436241,-6.09933 -4.955704,-3.81208 -8.195972,-8.00537 -3.049664,-4.19329 -3.81208,-7.81476 l 5.146308,-2.47785 v 16.58254 q 0,4.00269 -2.85906,6.86175 -2.668456,2.66846 -6.67114,2.66846 -4.193288,0 -6.861744,-2.66846 -2.668456,-2.66846 -2.668456,-6.86175 v -123.13018 q 0,-4.19329 2.668456,-6.86175 2.668456,-2.85906 6.861744,-2.85906 4.002684,0 6.67114,2.85906 2.85906,2.66846 2.85906,6.86175 v 53.55972 l -3.049664,-1.71543 q 0.571812,-3.62148 3.621476,-7.43356 3.049664,-4.00268 7.62416,-7.62416 4.7651,-3.62147 10.673822,-5.71812 6.09933,-2.28725 12.57987,-2.28725 z m -2.09665,17.53557 q -9.14899,0 -16.010734,4.5745 -6.67114,4.57449 -10.48322,12.38926 -3.81208,7.62416 -3.81208,17.53557 0,9.9114 3.81208,17.91677 3.81208,7.81477 10.48322,12.38926 6.861744,4.5745 16.010734,4.5745 8.95839,0 15.62953,-4.5745 6.67114,-4.57449 10.48322,-12.57986 4.00269,-8.00537 4.00269,-17.72617 0,-9.91141 -4.00269,-17.53557 -3.81208,-7.81477 -10.48322,-12.38926 -6.67114,-4.5745 -15.62953,-4.5745 z m 52.76851,69.37986 q -1.71543,-2.66846 -1.52483,-6.09933 0.19061,-3.62148 4.00269,-6.09933 2.66845,-1.71543 5.52751,-1.33423 3.04967,0.19061 5.71812,2.85906 5.33691,5.90873 11.81745,9.3396 6.67114,3.43087 16.01074,3.43087 3.81208,-0.1906 7.81476,-1.14362 4.00269,-1.14363 6.86175,-3.81208 2.85906,-2.85906 2.85906,-8.19597 0,-4.7651 -3.04967,-7.62416 -3.04966,-2.85906 -8.00537,-4.5745 -4.9557,-1.90604 -10.67382,-3.43087 -6.09933,-1.71544 -12.38926,-3.81208 -6.09933,-2.09665 -11.05503,-5.33691 -4.95571,-3.43088 -8.19598,-8.76779 -3.04966,-5.33691 -3.04966,-13.15167 0,-8.95839 4.9557,-15.43893 5.14631,-6.48053 13.15168,-10.10201 8.19597,-3.62148 17.72617,-3.62148 5.52752,0 11.62685,1.52483 6.09933,1.33423 11.81745,4.3839 5.71812,3.04966 9.9114,8.00537 1.90604,2.47785 2.09665,5.90872 0.38121,3.43087 -3.04967,6.09933 -2.28724,1.90604 -5.52751,1.71543 -3.24027,-0.1906 -5.33691,-2.09664 -3.62148,-4.5745 -9.3396,-7.05235 -5.71812,-2.66845 -12.96107,-2.66845 -3.62148,0 -7.62416,1.14362 -3.81208,0.95302 -6.48054,3.62148 -2.66846,2.66845 -2.66846,7.81476 0,4.7651 3.04967,7.62416 3.24027,2.85906 8.38657,4.7651 5.14631,1.90604 11.24564,3.43087 5.90873,1.52483 11.62685,3.62148 5.90872,2.09664 10.48322,5.52751 4.7651,3.24027 7.62416,8.57718 3.04966,5.14631 3.04966,13.15168 0,9.3396 -5.52752,16.01074 -5.33691,6.48053 -13.72348,9.91141 -8.19598,3.43087 -17.34497,3.43087 -10.86443,0 -21.72886,-3.81208 -10.67382,-4.00269 -18.10738,-13.72349 z"
           id="text5"
           aria-label="Labs" /></g></g></g><style
     type="text/css"
     id="style1">
	.st0{fill:#FFFFFF;}
	.st1{fill:none;}
</style></svg>
