<?xml version="1.0" encoding="UTF-8" standalone="no"?>
<!-- Created with Inkscape (http://www.inkscape.org/) -->

<svg
   width="178.02647mm"
   height="37.822891mm"
   viewBox="0 0 178.02647 37.822891"
   version="1.1"
   id="svg1"
   xml:space="preserve"
   sodipodi:docname="CodeLabs-logo-horizontal.svg"
   inkscape:version="1.4.2 (f4327f4, 2025-05-13)"
   xmlns:inkscape="http://www.inkscape.org/namespaces/inkscape"
   xmlns:sodipodi="http://sodipodi.sourceforge.net/DTD/sodipodi-0.dtd"
   xmlns="http://www.w3.org/2000/svg"
   xmlns:svg="http://www.w3.org/2000/svg"><sodipodi:namedview
     id="namedview1"
     pagecolor="#ffffff"
     bordercolor="#000000"
     borderopacity="0.25"
     inkscape:showpageshadow="2"
     inkscape:pageopacity="0.0"
     inkscape:pagecheckerboard="0"
     inkscape:deskcolor="#d1d1d1"
     inkscape:document-units="mm"
     inkscape:zoom="1.7945891"
     inkscape:cx="352.72698"
     inkscape:cy="63.52429"
     inkscape:window-width="2560"
     inkscape:window-height="1369"
     inkscape:window-x="-8"
     inkscape:window-y="-8"
     inkscape:window-maximized="1"
     inkscape:current-layer="svg1" /><defs
     id="defs1" /><g
     id="layer1"
     transform="translate(-15.986762,-129.58857)"><g
       style="fill:none"
       id="g1"
       transform="matrix(0.26458333,0,0,0.26458333,81.227084,120.87463)"><g
         id="g2"
         transform="translate(51.041078,94.62398)"><path
           style="font-size:90.1151px;font-family:Consolas;-inkscape-font-specification:Consolas;fill:#8455f0;stroke-width:0.46935"
           d="m -265.27756,26.908811 h -3.25611 q -8.4923,0 -12.62844,-4.004138 -4.13614,-3.960136 -4.13614,-12.056414 V -4.2882614 q 0,-2.1560741 -0.48402,-3.8281316 -0.48401,-1.7160589 -1.71605,-2.860098 -1.18805,-1.188041 -3.21212,-1.804062 -1.98006,-0.616021 -5.01617,-0.616021 h -1.89206 v -6.116211 h 1.89206 q 3.21211,0 5.23618,-0.528018 2.02407,-0.528018 3.16811,-1.584054 1.14404,-1.100038 1.58406,-2.772095 0.44001,-1.672058 0.44001,-3.960137 v -10.428358 q 0,-3.696127 0.88003,-6.644228 0.88003,-2.992103 2.8601,-5.060174 2.02407,-2.112073 5.19218,-3.212111 3.21211,-1.144039 7.83227,-1.144039 h 3.25611 v 6.160212 h -2.59609 q -10.20835,0 -10.20835,9.90034 v 10.252352 q 0,10.736369 -9.28432,12.100416 9.37232,0.924032 9.37232,12.0564146 V 10.672253 q 0,10.076346 10.12035,10.076346 h 2.59609 z M -213.83979,7.2401348 Q -216.8319,8.3841741 -220,8.9121923 q -3.12411,0.5720196 -6.46823,0.5720196 -10.47236,0 -16.14855,-5.676195 -5.63219,-5.6761951 -5.63219,-16.5885699 0,-5.23618 1.62805,-9.504327 1.62806,-4.268147 4.57616,-7.304251 2.9481,-3.036104 7.04024,-4.66416 4.09214,-1.672058 9.02031,-1.672058 3.43212,0 6.42422,0.484017 2.9921,0.484017 5.7202,1.584054 v 7.304251 q -2.8601,-1.496051 -5.8522,-2.156074 -2.9481,-0.704024 -6.11621,-0.704024 -2.9481,0 -5.5882,1.144039 -2.59608,1.100038 -4.57615,3.212111 -1.98007,2.112072 -3.12411,5.148177 -1.14404,3.036104 -1.14404,6.864236 0,8.0082749 3.87213,12.0124125 3.91614,3.9601361 10.82438,3.9601361 3.1241,0 6.0282,-0.7040242 2.9481,-0.7040242 5.6762,-2.11207257 z m 53.68184,-20.8127148 q 0,5.1481765 -1.45205,9.4603247 -1.45205,4.26814664 -4.18014,7.3482525 -2.72809,3.0361043 -6.64423,4.7521633 -3.91613,1.6720575 -8.8883,1.6720575 -4.75217,0 -8.5363,-1.4520499 -3.74013,-1.4960514 -6.38022,-4.3561497 -2.59609,-2.86009832 -4.00413,-7.0842435 -1.36405,-4.2241452 -1.36405,-9.7243339 0,-5.148177 1.45205,-9.372322 1.45205,-4.268147 4.18014,-7.304251 2.7281,-3.080106 6.64423,-4.752164 3.91614,-1.716059 8.88831,-1.716059 4.75216,0 8.49229,1.496052 3.78413,1.45205 6.38022,4.312148 2.64009,2.816097 4.00414,7.040242 1.40804,4.224145 1.40804,9.680333 z m -7.83227,0.352012 q 0,-4.092141 -0.92403,-7.128245 -0.88003,-3.080106 -2.55208,-5.104176 -1.67206,-2.068071 -4.09215,-3.080106 -2.37608,-1.056036 -5.32418,-1.056036 -3.43212,0 -5.8962,1.364047 -2.42008,1.320045 -4.00414,3.564122 -1.54005,2.244078 -2.28808,5.23618 -0.70402,2.948102 -0.70402,6.204214 0,4.0921403 0.88003,7.1722461 0.92403,3.0801059 2.59609,5.14817695 1.67206,2.02406955 4.04814,3.08010585 2.37608,1.0120348 5.36818,1.0120348 3.43212,0 5.8522,-1.3200454 2.46409,-1.36404686 4.00414,-3.608124 1.58405,-2.2440771 2.28808,-5.1921784 0.74802,-2.9921029 0.74802,-6.2922159 z m 16.67658,0.924031 q 0,-5.632193 1.54006,-9.988343 1.54005,-4.400151 4.35615,-7.392254 2.86009,-3.036104 6.82023,-4.576157 4.00414,-1.584055 8.88831,-1.584055 2.11207,0 4.13614,0.264009 2.06807,0.264009 4.04814,0.836029 v -18.568638 h 7.70026 V 8.8681908 h -6.86423 l -0.26401,-8.36028736 q -3.21211,4.66416026 -6.95224,6.90823746 -3.74013,2.2440771 -8.09628,2.2440771 -3.78413,0 -6.68823,-1.5840545 -2.8601,-1.5840544 -4.79617,-4.4441527 -1.89206,-2.9040998 -2.86009,-6.9522389 -0.96804,-4.0481391 -0.96804,-8.9763089 z m 7.83227,-0.484016 q 0,8.008275 2.33208,11.96841107 2.37608,3.91613463 6.68823,3.91613463 2.9041,0 6.11621,-2.59608926 3.25611,-2.59608924 6.82024,-7.70026464 V -27.697066 q -1.89207,-0.88003 -4.18015,-1.320045 -2.28808,-0.484017 -4.53215,-0.484017 -6.24822,0 -9.76834,4.048139 -3.47612,4.048139 -3.47612,12.672436 z m 81.270792,-2.772096 q 0,1.628056 -0.044,2.728094 -0.044,1.100038 -0.132005,2.068071 H -93.40765 q 0,6.7762332 3.78413,10.42835871 3.78413,3.60812399 10.912375,3.60812399 1.936067,0 3.872133,-0.1320045 1.936067,-0.1760061 3.740129,-0.4400151 1.804062,-0.2640091 3.432118,-0.5720197 1.672057,-0.3520121 3.080105,-0.7480257 v 6.2922162 q -3.124107,0.8800303 -7.084243,1.4080484 -3.916135,0.5720197 -8.14028,0.5720197 -5.676195,0 -9.768335,-1.5400529 -4.092141,-1.540053 -6.732232,-4.4441528 -2.596089,-2.9481013 -3.87213,-7.1722465 -1.23205,-4.2681467 -1.23205,-9.6363308 0,-4.664161 1.32005,-8.800303 1.364047,-4.180143 3.916135,-7.304251 2.596089,-3.168109 6.336217,-5.016172 3.740129,-1.848064 8.492292,-1.848064 4.620159,0 8.184282,1.45205 3.564122,1.45205 5.984205,4.136142 2.464085,2.640091 3.696127,6.468223 1.276044,3.78413 1.276044,8.492291 z m -7.964274,-1.100037 q 0.132005,-2.948102 -0.572019,-5.368185 -0.704024,-2.464085 -2.200076,-4.224145 -1.45205,-1.76006 -3.652125,-2.728094 -2.200076,-1.012035 -5.104176,-1.012035 -2.508086,0 -4.576157,0.968034 -2.068071,0.968033 -3.564123,2.728093 -1.496051,1.760061 -2.420083,4.224146 -0.924031,2.464084 -1.144039,5.412186 z m 23.232796,-38.193313 h 3.256112 q 8.492292,0 12.628434,4.004138 4.136142,3.960136 4.136142,12.056414 v 10.164349 q 0,2.156074 0.484017,3.872133 0.484017,1.672058 1.672057,2.860099 1.232043,1.144039 3.256112,1.76006 2.02407,0.616021 5.060174,0.616021 h 1.892065 v 6.116211 h -1.892065 q -3.21211,0 -5.280181,0.528018 -2.02407,0.528018 -3.168109,1.628056 -1.144039,1.056036 -1.584055,2.7280934 -0.440015,1.6720575 -0.440015,3.9601361 V 10.848259 q 0,3.696127 -0.88003,6.644228 -0.88003,2.992103 -2.860098,5.060174 -1.980068,2.112073 -5.192179,3.21211 -3.21211,1.14404 -7.832269,1.14404 h -3.256112 v -6.160212 h 2.640091 q 10.164349,0 10.164349,-9.90034 V -4.3762644 q 0,-10.7363686 9.284319,-12.0564146 -9.372322,-1.012035 -9.372322,-12.100416 v -10.076346 q 0,-10.076346 -10.076346,-10.076346 h -2.640091 z"
           id="text1"
           aria-label="{code}" /><path
           style="font-weight:600;font-size:190.604px;font-family:Quicksand;-inkscape-font-specification:'Quicksand Semi-Bold';letter-spacing:-11.2745px;word-spacing:0px;fill:#ffffff;stroke-width:0.992734"
           d="m 72.453902,60.678275 q 4.002684,0 6.67114,2.668456 2.85906,2.668456 2.85906,6.67114 0,4.002685 -2.85906,6.671141 -2.668456,2.668456 -6.67114,2.668456 H 8.4109568 q -4.193288,0 -7.0523481,-2.668456 -2.6684561,-2.85906 -2.6684561,-7.052349 V -44.344531 q 0,-4.193288 2.8590601,-6.861744 2.8590601,-2.85906 7.4335562,-2.85906 3.8120801,0 6.6711401,2.85906 3.049664,2.668456 3.049664,6.861744 V 63.918543 L 14.700889,60.678275 Z M 172.68275,-22.42507 q 4.19329,0 6.86175,2.85906 2.66845,2.668456 2.66845,6.861744 v 82.340929 q 0,4.193289 -2.66845,7.052349 -2.66846,2.668456 -6.86175,2.668456 -4.00268,0 -6.86174,-2.668456 -2.66846,-2.85906 -2.66846,-7.052349 V 55.913175 l 4.00269,0.571812 q 0,3.430872 -2.85906,7.62416 -2.66846,4.193288 -7.43356,8.195973 -4.7651,3.81208 -11.24564,6.480536 -6.48053,2.477852 -13.91409,2.477852 -13.15167,0 -23.63489,-6.67114 Q 97.584776,67.730623 91.485448,55.913175 85.38612,44.095727 85.38612,29.038011 q 0,-15.438925 6.099328,-27.0657689 6.099328,-11.8174483 16.391942,-18.4885881 10.48322,-6.67114 23.25369,-6.67114 8.19597,0 15.05772,2.668456 7.05234,2.668456 12.19865,6.861744 5.14631,4.1932878 7.81477,8.9583879 2.85906,4.57449612 2.85906,8.7677842 l -5.90873,0.571812 V -12.704266 q 0,-4.002684 2.66846,-6.861744 2.85906,-2.85906 6.86174,-2.85906 z m -38.88321,86.153009 q 8.95838,0 15.82013,-4.574496 6.86174,-4.574496 10.67382,-12.38926 3.81208,-8.005368 3.81208,-17.726172 0,-9.911409 -3.81208,-17.726173 -3.81208,-7.8147639 -10.67382,-12.38926 -6.86175,-4.5744961 -15.82013,-4.5744961 -8.76779,0 -15.62953,4.5744961 -6.67114,4.5744961 -10.67383,12.38926 -3.81208,7.814764 -3.81208,17.726173 0,9.720804 3.81208,17.726172 4.00269,7.814764 10.67383,12.38926 6.86174,4.574496 15.62953,4.574496 z m 114.33359,-86.915425 q 13.34228,0 23.63489,6.67114 10.48322,6.6711398 16.58255,18.4885881 6.09933,11.6268439 6.09933,26.8751649 0,15.24832 -6.09933,27.065768 -6.09933,11.817448 -16.39194,18.679193 -10.29262,6.67114 -23.25369,6.67114 -7.24295,0 -13.72349,-2.287248 -6.48054,-2.477852 -11.43624,-6.099328 -4.9557,-3.812081 -8.19597,-8.005369 -3.04967,-4.193288 -3.81208,-7.814764 l 5.14631,-2.477852 v 16.582548 q 0,4.002685 -2.85906,6.861745 -2.66846,2.668456 -6.67114,2.668456 -4.19329,0 -6.86175,-2.668456 -2.66846,-2.668456 -2.66846,-6.861745 V -51.968691 q 0,-4.193288 2.66846,-6.861744 2.66846,-2.85906 6.86175,-2.85906 4.00268,0 6.67114,2.85906 2.85906,2.668456 2.85906,6.861744 V 1.5910341 l -3.04967,-1.71543608 q 0.57181,-3.62147612 3.62148,-7.43355612 3.04966,-4.0026839 7.62416,-7.6241599 4.7651,-3.621476 10.67382,-5.71812 6.09933,-2.287248 12.57987,-2.287248 z m -2.09665,17.5355679 q -9.14899,0 -16.01073,4.5744961 -6.67114,4.5744961 -10.48322,12.38926 -3.81208,7.62416 -3.81208,17.535569 0,9.911408 3.81208,17.916776 3.81208,7.814764 10.48322,12.38926 6.86174,4.574496 16.01073,4.574496 8.95839,0 15.62953,-4.574496 6.67114,-4.574496 10.48322,-12.579864 4.00268,-8.005368 4.00268,-17.726172 0,-9.911409 -4.00268,-17.535569 -3.81208,-7.8147639 -10.48322,-12.38926 -6.67114,-4.5744961 -15.62953,-4.5744961 z m 52.76851,69.3798571 q -1.71543,-2.668456 -1.52483,-6.099328 0.19061,-3.621476 4.00269,-6.099328 2.66845,-1.715436 5.52751,-1.334228 3.04967,0.190604 5.71812,2.85906 5.33691,5.908724 11.81745,9.339596 6.67114,3.430872 16.01074,3.430872 3.81208,-0.190604 7.81476,-1.143624 4.00268,-1.143624 6.86174,-3.81208 2.85906,-2.85906 2.85906,-8.195972 0,-4.7651 -3.04966,-7.62416 -3.04966,-2.85906 -8.00537,-4.574496 -4.9557,-1.90604 -10.67382,-3.430872 -6.09933,-1.715436 -12.38926,-3.81208 -6.09933,-2.096644 -11.05503,-5.336912 -4.95571,-3.430872 -8.19598,-8.767785 -3.04966,-5.336912 -3.04966,-13.1516759 0,-8.9583881 4.9557,-15.4389243 5.14631,-6.4805358 13.15168,-10.1020118 8.19597,-3.621476 17.72617,-3.621476 5.52752,0 11.62685,1.524832 6.09932,1.334228 11.81744,4.383892 5.71812,3.049664 9.91141,8.0053678 1.90604,2.4778521 2.09665,5.9087242 0.3812,3.43087203 -3.04967,6.0993281 -2.28725,1.90604 -5.52751,1.715436 -3.24027,-0.190604 -5.33692,-2.096644 -3.62147,-4.5744961 -9.33959,-7.0523482 -5.71812,-2.668456 -12.96107,-2.668456 -3.62148,0 -7.62416,1.143624 -3.81208,0.95302 -6.48054,3.6214761 -2.66846,2.66845603 -2.66846,7.8147641 0,4.7651001 3.04967,7.6241599 3.24027,2.85906 8.38657,4.7651 5.14631,1.90604 11.24564,3.430872 5.90872,1.524832 11.62684,3.621477 5.90873,2.096644 10.48322,5.527516 4.7651,3.240268 7.62416,8.57718 3.04967,5.146308 3.04967,13.151676 0,9.339596 -5.52752,16.010736 -5.33691,6.480537 -13.72349,9.911409 -8.19597,3.430872 -17.34496,3.430872 -10.86443,0 -21.72886,-3.81208 -10.67382,-4.002684 -18.10738,-13.723489 z"
           id="text5"
           aria-label="Labs" /></g></g></g><style
     type="text/css"
     id="style1">
	.st0{fill:#FFFFFF;}
	.st1{fill:none;}
</style></svg>
