<?xml version="1.0" encoding="UTF-8" standalone="no"?>
<!-- Created with Inkscape (http://www.inkscape.org/) -->

<svg
   width="139.14655mm"
   height="46.729691mm"
   viewBox="0 0 139.14655 46.729691"
   version="1.1"
   id="svg1"
   xml:space="preserve"
   sodipodi:docname="CodeLabs-logo-lightbg-compact.svg"
   inkscape:version="1.4.2 (f4327f4, 2025-05-13)"
   xmlns:inkscape="http://www.inkscape.org/namespaces/inkscape"
   xmlns:sodipodi="http://sodipodi.sourceforge.net/DTD/sodipodi-0.dtd"
   xmlns="http://www.w3.org/2000/svg"
   xmlns:svg="http://www.w3.org/2000/svg"><sodipodi:namedview
     id="namedview1"
     pagecolor="#ffffff"
     bordercolor="#000000"
     borderopacity="0.25"
     inkscape:showpageshadow="2"
     inkscape:pageopacity="0.0"
     inkscape:pagecheckerboard="0"
     inkscape:deskcolor="#d1d1d1"
     inkscape:document-units="mm"
     inkscape:zoom="1.623537"
     inkscape:cx="279.63637"
     inkscape:cy="13.550661"
     inkscape:window-width="2560"
     inkscape:window-height="1369"
     inkscape:window-x="-8"
     inkscape:window-y="-8"
     inkscape:window-maximized="1"
     inkscape:current-layer="svg1" /><defs
     id="defs1" /><path
     style="font-size:51.5083px;font-family:Consolas;-inkscape-font-specification:Consolas;letter-spacing:1.41817px;fill:#8455f0;stroke-width:0.268274"
     d="m 18.485652,46.729685 h -1.86114 q -4.854054,0 -7.2182043,-2.288699 -2.3641505,-2.263548 -2.3641505,-6.891247 v -8.651785 q 0,-1.232376 -0.2766559,-2.188097 -0.276656,-0.98087 -0.980871,-1.634784 Q 5.1055658,24.396008 3.9486411,24.0439 2.8168669,23.691793 1.0814798,23.691793 H 6.6757202e-6 V 20.195868 H 1.0814798 q 1.8359892,0 2.9929139,-0.301806 1.1569248,-0.301807 1.8108387,-0.90542 0.653914,-0.628763 0.9054194,-1.584483 0.2515054,-0.955721 0.2515054,-2.263549 V 9.1799328 q 0,-2.1126451 0.5030107,-3.7977311 Q 8.0481787,3.6719651 9.1799529,2.4898899 10.336878,1.2826641 12.147716,0.65390062 13.983706,-1.335144e-5 16.624512,-1.335144e-5 h 1.86114 V 3.5210619 H 17.00177 q -5.834925,0 -5.834925,5.6588709 v 5.8600752 q 0,6.136731 -5.3067631,6.916398 5.3570641,0.528161 5.3570641,6.891247 v 8.601484 q 0,5.759473 5.784624,5.759473 h 1.483882 z M 120.63579,-1.335144e-5 h 1.86114 q 4.85406,0 7.21821,2.28869895144 2.36415,2.2635483 2.36415,6.8912472 v 5.8097742 q 0,1.232376 0.27665,2.213247 0.27666,0.955721 0.95572,1.634785 0.70422,0.653914 1.86114,1.006022 1.15693,0.352107 2.89231,0.352107 h 1.08148 v 3.495925 h -1.08148 q -1.83599,0 -3.01806,0.301806 -1.15693,0.301807 -1.81084,0.93057 -0.65391,0.603613 -0.90542,1.559334 -0.2515,0.95572 -0.2515,2.263548 v 8.802688 q 0,2.112645 -0.50301,3.797731 -0.50302,1.710237 -1.63479,2.892312 -1.13177,1.207226 -2.96776,1.835989 -1.83599,0.653914 -4.4768,0.653914 h -1.86114 V 43.20861 h 1.50903 q 5.80978,0 5.80978,-5.658871 v -8.702086 q 0,-6.136731 5.30676,-6.891247 -5.35706,-0.578462 -5.35706,-6.916398 V 9.280535 q 0,-5.7594731 -5.75948,-5.7594731 h -1.50903 z"
     id="text1"
     aria-label="{   }" /><path
     style="font-weight:600;font-size:50.4306px;font-family:Quicksand;-inkscape-font-specification:'Quicksand Semi-Bold';letter-spacing:-2.98304px;word-spacing:0px;fill:#333333;stroke-width:0.262661"
     d="m 39.522067,35.94246 q 1.059043,0 1.765071,0.706028 0.756459,0.706029 0.756459,1.765071 0,1.059043 -0.756459,1.765071 -0.706028,0.706029 -1.765071,0.706029 H 22.577386 q -1.109474,0 -1.865933,-0.706029 -0.706028,-0.756459 -0.706028,-1.865932 V 8.1551999 q 0,-1.1094732 0.756459,-1.8155015 0.756459,-0.756459 1.966793,-0.756459 1.008612,0 1.765071,0.756459 0.80689,0.7060283 0.80689,1.8155015 V 36.79978 L 24.241595,35.94246 Z M 66.040929,13.954719 q 1.109473,0 1.815502,0.756459 0.706028,0.706028 0.706028,1.815501 v 21.786019 q 0,1.109473 -0.706028,1.865932 -0.706029,0.706029 -1.815502,0.706029 -1.059042,0 -1.815501,-0.706029 -0.706029,-0.756459 -0.706029,-1.865932 v -3.631003 l 1.059043,0.151292 q 0,0.907751 -0.756459,2.017224 -0.706029,1.109473 -1.966794,2.168516 -1.260765,1.008612 -2.975405,1.71464 -1.71464,0.655598 -3.681434,0.655598 -3.479711,0 -6.253394,-1.765071 -2.773683,-1.815502 -4.387462,-4.942199 -1.613779,-3.126697 -1.613779,-7.110714 0,-4.084879 1.613779,-7.161145 1.613779,-3.126698 4.337031,-4.891769 2.773683,-1.765071 6.152534,-1.765071 2.168515,0 3.984017,0.706029 1.865932,0.706028 3.227558,1.815501 1.361626,1.109474 2.067655,2.370239 0.756459,1.210334 0.756459,2.319807 l -1.563349,0.151292 v -4.589185 q 0,-1.059042 0.706029,-1.815501 0.756459,-0.756459 1.815501,-0.756459 z M 55.753087,36.74935 q 2.370238,0 4.18574,-1.210335 1.815501,-1.210334 2.824113,-3.277989 1.008612,-2.118085 1.008612,-4.690045 0,-2.622392 -1.008612,-4.690046 -1.008612,-2.067655 -2.824113,-3.277989 -1.815502,-1.210334 -4.18574,-1.210334 -2.319808,0 -4.135309,1.210334 -1.765071,1.210334 -2.824114,3.277989 -1.008612,2.067654 -1.008612,4.690046 0,2.57196 1.008612,4.690045 1.059043,2.067655 2.824114,3.277989 1.815501,1.210335 4.135309,1.210335 z m 30.25074,-22.996354 q 3.530142,0 6.253394,1.765071 2.773683,1.765071 4.387462,4.891769 1.61378,3.076266 1.61378,7.110714 0,4.034448 -1.61378,7.161145 -1.613779,3.126697 -4.337031,4.942199 -2.723252,1.765071 -6.152533,1.765071 -1.916363,0 -3.631003,-0.605167 -1.714641,-0.655598 -3.025836,-1.61378 -1.311196,-1.008612 -2.168516,-2.118085 -0.80689,-1.109473 -1.008612,-2.067654 l 1.361626,-0.655598 v 4.387462 q 0,1.059043 -0.756459,1.815502 -0.706028,0.706028 -1.765071,0.706028 -1.109473,0 -1.815501,-0.706028 -0.706029,-0.706029 -0.706029,-1.815502 V 6.137976 q 0,-1.1094732 0.706029,-1.8155016 0.706028,-0.756459 1.815501,-0.756459 1.059043,0 1.765071,0.756459 0.756459,0.7060284 0.756459,1.8155016 v 14.170998 l -0.806889,-0.453875 q 0.151291,-0.958181 0.958181,-1.966793 0.806889,-1.059043 2.017224,-2.017224 1.260765,-0.958182 2.824113,-1.512918 1.61378,-0.605168 3.32842,-0.605168 z m -0.554737,4.639616 q -2.420668,0 -4.23617,1.210334 -1.765071,1.210334 -2.773683,3.277989 -1.008612,2.017224 -1.008612,4.639615 0,2.622391 1.008612,4.740476 1.008612,2.067655 2.773683,3.277989 1.815502,1.210335 4.23617,1.210335 2.370239,0 4.13531,-1.210335 1.76507,-1.210334 2.773682,-3.328419 1.059043,-2.118085 1.059043,-4.690046 0,-2.622391 -1.059043,-4.639615 Q 91.34947,20.81328 89.5844,19.602946 87.819329,18.392612 85.44909,18.392612 Z M 99.410747,36.74935 q -0.453876,-0.706029 -0.403445,-1.613779 0.05043,-0.958182 1.059038,-1.61378 0.70603,-0.453875 1.46249,-0.353014 0.80689,0.05043 1.51292,0.756459 1.41206,1.563349 3.1267,2.471099 1.76507,0.907751 4.23617,0.907751 1.00861,-0.05043 2.06765,-0.302583 1.05904,-0.302584 1.8155,-1.008612 0.75646,-0.756459 0.75646,-2.168516 0,-1.260765 -0.80689,-2.017224 -0.80689,-0.756459 -2.11808,-1.210334 -1.3112,-0.504306 -2.82412,-0.907751 -1.61377,-0.453876 -3.27798,-1.008612 -1.61378,-0.554737 -2.92498,-1.412057 -1.31119,-0.907751 -2.16852,-2.319808 -0.80688,-1.412056 -0.80688,-3.479711 0,-2.370238 1.31119,-4.084878 1.36163,-1.714641 3.47971,-2.672822 2.16852,-0.958182 4.69005,-0.958182 1.46249,0 3.07626,0.403445 1.61378,0.353014 3.1267,1.159904 1.51292,0.80689 2.62239,2.118085 0.50431,0.655598 0.55474,1.563349 0.10086,0.907751 -0.80689,1.613779 -0.60517,0.504306 -1.46249,0.453875 -0.85732,-0.05043 -1.41205,-0.554736 -0.95819,-1.210335 -2.4711,-1.865932 -1.51292,-0.706029 -3.42928,-0.706029 -0.95819,0 -2.01723,0.302584 -1.00861,0.252153 -1.71464,0.958181 -0.70603,0.706029 -0.70603,2.067655 0,1.260765 0.80689,2.017224 0.85732,0.756459 2.21895,1.260765 1.36162,0.504306 2.9754,0.90775 1.56335,0.403445 3.07627,0.958182 1.56335,0.554736 2.77368,1.462487 1.26077,0.85732 2.01723,2.269377 0.80689,1.361626 0.80689,3.479712 0,2.471099 -1.46249,4.23617 -1.41206,1.71464 -3.631,2.622391 -2.16852,0.907751 -4.58919,0.907751 -2.87454,0 -5.74909,-1.008612 -2.82411,-1.059043 -4.790903,-3.631003 z"
     id="text5"
     aria-label="Labs" /><style
     type="text/css"
     id="style1">
	.st0{fill:#FFFFFF;}
	.st1{fill:none;}
</style></svg>
